HIERARCHY
ROOT joint_Root
{
	OFFSET 0.0 0.0 0.0
	CHANNELS 6 Xposition Yposition Zposition Zrotation Xrotation Yrotation 
	JOINT Hips
	{
		OFFSET 4.5925 91.4895 -427.239
		CHANNELS 6 Xposition Yposition Zposition Zrotation Xrotation Yrotation 
		JOINT Spine
		{
			OFFSET 15.7357 0.0 0.0
			CHANNELS 6 Xposition Yposition Zposition Zrotation Xrotation Yrotation 
			JOINT Chest
			{
				OFFSET 8.98455 -0.406207 0.0
				CHANNELS 6 Xposition Yposition Zposition Zrotation Xrotation Yrotation 
				JOINT Neck
				{
					OFFSET 16.3773 0.0 0.0
					CHANNELS 6 Xposition Yposition Zposition Zrotation Xrotation Yrotation 
					JOINT Head
					{
						OFFSET 6.45672 0.0 0.0
						CHANNELS 6 Xposition Yposition Zposition Zrotation Xrotation Yrotation 
						End Site
						{
							OFFSET 0.0 0.0 0.0
						}
					}
				}
				JOINT Shoulder_L
				{
					OFFSET 12.9942 -0.242716 4.98039
					CHANNELS 6 Xposition Yposition Zposition Zrotation Xrotation Yrotation 
					JOINT UpperArm_L
					{
						OFFSET 5.34809 0.0 0.0
						CHANNELS 6 Xposition Yposition Zposition Zrotation Xrotation Yrotation 
						JOINT LowerArm_L
						{
							OFFSET 24.3286 1.87007e-05 0.0
							CHANNELS 6 Xposition Yposition Zposition Zrotation Xrotation Yrotation 
							JOINT Hand_L
							{
								OFFSET 22.2916 0.0 0.0
								CHANNELS 6 Xposition Yposition Zposition Zrotation Xrotation Yrotation 
								End Site
								{
									OFFSET 0.0 0.0 0.0
								}
							}
						}
					}
				}
				JOINT Shoulder_R
				{
					OFFSET 12.9945 -0.242716 -4.98039
					CHANNELS 6 Xposition Yposition Zposition Zrotation Xrotation Yrotation 
					JOINT UpperArm_R
					{
						OFFSET -5.34813 0.0 0.0
						CHANNELS 6 Xposition Yposition Zposition Zrotation Xrotation Yrotation 
						JOINT LowerArm_R
						{
							OFFSET -24.3289 0.000322201 0.0
							CHANNELS 6 Xposition Yposition Zposition Zrotation Xrotation Yrotation 
							JOINT Hand_R
							{
								OFFSET -22.2915 -0.000108084 0.0
								CHANNELS 6 Xposition Yposition Zposition Zrotation Xrotation Yrotation 
								End Site
								{
									OFFSET 0.0 0.0 0.0
								}
							}
						}
					}
				}
			}
		}
		JOINT UpperLeg_L
		{
			OFFSET -2.19248 -6.46944 0.0
			CHANNELS 6 Xposition Yposition Zposition Zrotation Xrotation Yrotation 
			JOINT LowerLeg_L
			{
				OFFSET 39.0811 0.0 -1.23785e-05
				CHANNELS 6 Xposition Yposition Zposition Zrotation Xrotation Yrotation 
				JOINT Foot_L
				{
					OFFSET 40.9854 0.0 -1.26872e-05
					CHANNELS 6 Xposition Yposition Zposition Zrotation Xrotation Yrotation 
					JOINT Toes_L
					{
						OFFSET 11.7543 0.0 0.0
						CHANNELS 6 Xposition Yposition Zposition Zrotation Xrotation Yrotation 
						End Site
						{
							OFFSET 0.0 0.0 0.0
						}
					}
				}
			}
		}
		JOINT UpperLeg_R
		{
			OFFSET -2.19251 6.46944 0.0
			CHANNELS 6 Xposition Yposition Zposition Zrotation Xrotation Yrotation 
			JOINT LowerLeg_R
			{
				OFFSET -39.0811 -0.00228153 -0.0401928
				CHANNELS 6 Xposition Yposition Zposition Zrotation Xrotation Yrotation 
				JOINT Foot_R
				{
					OFFSET -40.9854 0.0 0.0
					CHANNELS 6 Xposition Yposition Zposition Zrotation Xrotation Yrotation 
					JOINT Toes_R
					{
						OFFSET -11.7543 0.0 0.0
						CHANNELS 6 Xposition Yposition Zposition Zrotation Xrotation Yrotation 
						End Site
						{
							OFFSET 0.0 0.0 0.0
						}
					}
				}
			}
		}
	}
}
MOTION
Frames:	9
Frame Time:	0.0333333
0.000000 0.000000 0.000000 0.000000 0.000000 -0.000000 -1.372890 87.037100 523.536000 -90.560100 -15.813200 -178.990000 15.735700 0.000005 -0.000001 74.047600 83.878100 -72.478100 8.984550 -0.406207 -0.000000 4.060930 -3.410820 3.257200 16.377300 -0.000001 -0.000001 -1.463930 -7.400930 2.848190 6.456720 -0.000001 -0.000000 -5.967490 -7.759710 5.179710 12.994200 -0.242716 4.980390 -90.855700 2.714480 -72.496900 5.348090 -0.000007 -0.000001 -70.553800 31.427500 -0.230618 24.328600 0.000019 0.000005 14.539900 22.403300 -34.239400 22.291600 -0.000001 0.000005 3.988690 5.308730 -0.171097 12.994500 -0.242716 -4.980390 87.007200 11.365600 -75.142400 -5.348130 -0.000001 -0.000004 -68.234200 25.463700 -3.023650 -24.328900 0.000322 -0.000009 0.204556 0.868906 -13.287100 -22.291500 -0.000108 -0.000004 14.572600 5.308400 -0.158441 -2.192480 -6.469440 -0.000000 -170.418000 -3.898430 -6.534920 39.081100 -0.000007 -0.000012 0.089966 -0.061227 55.760500 40.985400 -0.000006 -0.000013 3.399190 -19.764600 -58.508400 11.754300 -0.000000 0.000003 -0.001608 -0.023700 -17.540500 -2.192510 6.469440 -0.000001 178.582000 16.808900 169.769000 -39.081100 -0.002282 -0.040193 0.078666 -0.076951 44.416800 -40.985400 0.000008 0.000006 3.625740 -2.768520 -81.888100 -11.754300 -0.000006 -0.000006 -0.627887 -0.769734 -17.422300
0.000000 0.000000 0.000000 0.000000 0.000000 -0.000000 -1.424160 87.696900 521.344000 -91.245000 -13.773600 -178.551000 15.735700 0.000005 -0.000001 80.812200 83.713000 -79.583300 8.984550 -0.406207 -0.000000 4.672120 -2.037230 2.538390 16.377300 -0.000001 -0.000001 -0.954026 -7.410150 3.179830 6.456720 -0.000001 -0.000000 -5.236030 -8.359670 5.645580 12.994200 -0.242716 4.980390 -90.860100 2.658370 -72.064000 5.348090 -0.000007 -0.000001 -73.777400 30.338900 2.845530 24.328600 0.000019 0.000005 13.098000 25.225400 -28.632800 22.291600 -0.000001 0.000005 3.117170 5.291630 0.305820 12.994500 -0.242716 -4.980390 87.386900 10.576400 -76.037100 -5.348130 -0.000001 -0.000004 -65.939500 31.137500 -9.570770 -24.328900 0.000322 -0.000009 0.299839 0.912007 -18.265900 -22.291500 -0.000108 -0.000004 17.097800 5.335010 -0.929920 -2.192480 -6.469440 -0.000000 -172.379000 -3.004880 -10.568400 39.081100 -0.000007 -0.000012 0.095893 -0.049455 62.715900 40.985400 -0.000006 -0.000013 2.432440 -15.313800 -60.468800 11.754300 -0.000000 0.000003 -0.001164 -0.017707 -17.296900 -2.192510 6.469440 -0.000001 177.474000 15.787100 173.443000 -39.081100 -0.002282 -0.040193 0.061253 -0.066462 41.099500 -40.985400 0.000008 0.000006 3.977580 -1.663220 -80.948400 -11.754300 -0.000006 -0.000006 -0.899827 -1.095020 -17.944600
0.000000 0.000000 0.000000 0.000000 0.000000 -0.000000 -1.467930 88.473600 519.487000 -91.958100 -11.139200 -179.122000 15.735700 0.000005 -0.000001 88.602000 83.827300 -87.795500 8.984550 -0.406207 -0.000000 4.578600 -0.323091 1.624030 16.377300 -0.000001 -0.000001 -0.429491 -7.343130 3.413970 6.456720 -0.000001 -0.000000 -4.876610 -8.944860 5.861400 12.994200 -0.242716 4.980390 -90.883900 2.624080 -71.377400 5.348090 -0.000007 -0.000001 -75.874900 28.213500 5.207770 24.328600 0.000019 0.000005 9.891610 25.409400 -22.114800 22.291600 -0.000001 0.000005 3.383570 5.255690 1.280940 12.994500 -0.242716 -4.980390 87.739900 9.847090 -77.005300 -5.348130 -0.000001 -0.000004 -62.331600 33.919600 -15.949100 -24.328900 0.000322 -0.000009 0.886690 1.985780 -24.090600 -22.291500 -0.000108 -0.000004 18.998100 5.368720 -1.936110 -2.192480 -6.469440 -0.000000 -174.270000 -3.187710 -15.605800 39.081100 -0.000007 -0.000012 0.111118 -0.048416 66.454000 40.985400 -0.000006 -0.000013 0.263805 -8.374700 -61.517700 11.754300 -0.000000 0.000003 -0.001000 -0.015412 -17.203600 -2.192510 6.469440 -0.000001 176.376000 14.925200 175.528000 -39.081100 -0.002282 -0.040193 0.041165 -0.048683 37.886800 -40.985400 0.000008 0.000006 4.535060 0.371997 -78.954600 -11.754300 -0.000006 -0.000006 -1.426260 -1.701150 -19.044600
0.000000 0.000000 0.000000 0.000000 0.000000 -0.000000 -1.553600 89.226500 517.690000 -92.207500 -8.786170 -179.456000 15.735700 0.000005 -0.000001 95.468500 83.784000 -94.931500 8.984550 -0.406207 -0.000000 4.604990 1.167840 1.026030 16.377300 -0.000001 -0.000001 -0.077608 -7.207130 3.407560 6.456720 -0.000001 -0.000000 -4.752450 -9.499720 5.866250 12.994200 -0.242716 4.980390 -90.855800 2.437350 -70.646600 5.348090 -0.000007 -0.000001 -77.177400 25.314500 6.760420 24.328600 0.000019 0.000005 6.879450 25.336500 -15.744900 22.291600 -0.000001 0.000005 4.076830 5.211200 2.436180 12.994500 -0.242716 -4.980390 88.047200 9.119760 -77.860200 -5.348130 -0.000001 -0.000004 -58.228100 34.277800 -22.080100 -24.328900 0.000322 -0.000009 0.557738 0.977709 -29.831400 -22.291500 -0.000108 -0.000004 19.647900 5.415940 -3.466420 -2.192480 -6.469440 -0.000000 -175.596000 -3.616830 -20.001800 39.081100 -0.000007 -0.000012 0.109698 -0.047475 66.595300 40.985400 -0.000006 -0.000013 -2.152430 -4.814940 -62.640100 11.754300 -0.000000 0.000003 -0.001355 -0.020331 -17.403500 -2.192510 6.469440 -0.000001 175.510000 14.405600 177.272000 -39.081100 -0.002282 -0.040193 0.019803 -0.023348 35.269100 -40.985400 0.000008 0.000006 4.587630 2.910650 -75.944100 -11.754300 -0.000006 -0.000006 -1.927150 -2.199920 -20.943900
0.000000 0.000000 0.000000 0.000000 0.000000 -0.000000 -1.659120 89.864600 515.955000 -92.331800 -6.451170 -179.976000 15.735700 0.000005 -0.000001 101.408000 83.671700 -101.105000 8.984550 -0.406207 -0.000000 4.637560 2.490680 0.504957 16.377300 -0.000001 -0.000001 -0.071140 -6.964720 3.309540 6.456720 -0.000001 -0.000000 -4.853740 -9.808820 5.539690 12.994200 -0.242716 4.980390 -90.760100 2.100170 -70.097200 5.348090 -0.000007 -0.000001 -77.872500 22.051600 7.645670 24.328600 0.000019 0.000005 4.750190 26.723000 -10.471600 22.291600 -0.000001 0.000005 4.711710 5.146690 4.019140 12.994500 -0.242716 -4.980390 88.374600 8.174690 -78.714700 -5.348130 -0.000001 -0.000004 -54.708300 33.090600 -27.785900 -24.328900 0.000322 -0.000009 0.136244 0.198660 -34.850600 -22.291500 -0.000108 -0.000004 19.832500 5.429030 -3.906940 -2.192480 -6.469440 -0.000000 -176.620000 -4.098530 -23.649700 39.081100 -0.000007 -0.000012 0.092028 -0.046644 63.119500 40.985400 -0.000006 -0.000013 -2.813020 -4.104840 -64.232500 11.754300 -0.000000 0.000003 -0.001285 -0.019375 -17.364600 -2.192510 6.469440 -0.000001 174.767000 14.183900 178.384000 -39.081100 -0.002282 -0.040193 0.015689 -0.018749 33.467000 -40.985400 0.000008 0.000006 4.880000 5.412240 -73.799500 -11.754300 -0.000006 -0.000006 -0.584319 -0.710900 -21.364100
0.000000 0.000000 0.000000 0.000000 0.000000 -0.000000 -1.753460 90.273900 514.184000 -92.422900 -4.395540 179.524000 15.735700 0.000005 -0.000001 105.497000 83.483200 -105.459000 8.984550 -0.406207 -0.000000 4.799680 3.474840 -0.069896 16.377300 -0.000001 -0.000001 -0.396121 -6.721430 3.100000 6.456720 -0.000001 -0.000000 -5.202360 -9.931920 5.287280 12.994200 -0.242716 4.980390 -90.602700 1.651810 -69.951100 5.348090 -0.000007 -0.000001 -78.163800 19.502500 8.274460 24.328600 0.000019 0.000005 3.158990 28.635400 -6.570150 22.291600 -0.000001 0.000005 5.131140 5.078620 5.598120 12.994500 -0.242716 -4.980390 88.651700 7.208840 -79.376900 -5.348130 -0.000001 -0.000004 -51.924400 30.996600 -32.999200 -24.328900 0.000322 -0.000009 -0.592098 -0.731619 -38.917800 -22.291500 -0.000108 -0.000004 19.668100 5.434200 -4.083900 -2.192480 -6.469440 -0.000000 -177.250000 -3.841180 -26.145700 39.081100 -0.000007 -0.000012 0.064878 -0.043136 56.378200 40.985400 -0.000006 -0.000013 -2.920800 -4.858570 -65.335300 11.754300 -0.000000 0.000003 -0.001203 -0.018251 -17.319000 -2.192510 6.469440 -0.000001 174.213000 13.813000 179.330000 -39.081100 -0.002282 -0.040193 0.017004 -0.021821 32.133600 -40.985400 0.000008 0.000006 5.693370 7.010790 -72.071100 -11.754300 -0.000006 -0.000006 -0.017726 -0.154352 -22.875400
0.000000 0.000000 0.000000 0.000000 0.000000 -0.000000 -1.864680 90.410900 512.312000 -92.434800 -2.553760 179.014000 15.735700 0.000005 -0.000001 107.785000 83.292800 -108.023000 8.984550 -0.406207 -0.000000 5.026140 4.094840 -0.655930 16.377300 -0.000001 -0.000001 -1.014930 -6.470510 2.874630 6.456720 -0.000001 -0.000000 -5.777140 -9.797580 4.905720 12.994200 -0.242716 4.980390 -90.510400 1.410110 -70.100500 5.348090 -0.000007 -0.000001 -77.992100 18.260600 8.873420 24.328600 0.000019 0.000005 2.098080 29.486200 -4.256480 22.291600 -0.000001 0.000005 4.780810 5.036540 6.533630 12.994500 -0.242716 -4.980390 88.877200 6.331440 -79.922700 -5.348130 -0.000001 -0.000004 -49.851300 28.557400 -37.709800 -24.328900 0.000322 -0.000009 -0.888880 -0.988173 -41.934700 -22.291500 -0.000108 -0.000004 19.788200 5.435730 -4.136710 -2.192480 -6.469440 -0.000000 -177.374000 -3.174700 -27.466300 39.081100 -0.000007 -0.000012 0.038950 -0.036339 46.984300 40.985400 -0.000006 -0.000013 -2.772130 -5.863380 -65.621200 11.754300 -0.000000 0.000003 -0.001244 -0.018821 -17.342100 -2.192510 6.469440 -0.000001 173.689000 13.541500 -179.836000 -39.081100 -0.002282 -0.040193 0.016304 -0.021425 31.257400 -40.985400 0.000008 0.000006 6.276760 8.421500 -71.085600 -11.754300 -0.000006 -0.000006 -0.026498 -0.200938 -24.797200
0.000000 0.000000 0.000000 0.000000 0.000000 -0.000000 -2.016620 90.188900 510.160000 -92.051800 -0.738975 178.805000 15.735700 0.000005 -0.000001 109.308000 83.037400 -109.714000 8.984550 -0.406207 -0.000000 5.406010 4.602320 -1.027180 16.377300 -0.000001 -0.000001 -1.711790 -6.289450 2.680660 6.456720 -0.000001 -0.000000 -6.469940 -9.472640 4.382680 12.994200 -0.242716 4.980390 -90.445300 1.258060 -70.506300 5.348090 -0.000007 -0.000001 -77.684400 17.905300 9.425360 24.328600 0.000019 0.000005 1.731890 29.921200 -3.468780 22.291600 -0.000001 0.000005 4.420030 5.028050 6.716370 12.994500 -0.242716 -4.980390 89.054500 5.579140 -80.365600 -5.348130 -0.000001 -0.000004 -48.466500 26.022700 -41.649600 -24.328900 0.000322 -0.000009 -0.753648 -0.773368 -44.216800 -22.291500 -0.000108 -0.000004 20.162800 5.434560 -4.096320 -2.192480 -6.469440 -0.000000 -176.539000 -2.104370 -27.617500 39.081100 -0.000007 -0.000012 0.013529 -0.017797 37.238100 40.985400 -0.000006 -0.000013 -3.268710 -3.583900 -65.677600 11.754300 -0.000000 0.000003 -0.001207 -0.018305 -17.321100 -2.192510 6.469440 -0.000001 173.296000 13.374600 -178.638000 -39.081100 -0.002282 -0.040193 0.013321 -0.016781 30.844600 -40.985400 0.000008 0.000006 6.879590 10.057100 -70.926700 -11.754300 -0.000006 -0.000006 -0.034751 -0.238466 -26.355000
0.000000 0.000000 0.000000 0.000000 0.000000 -0.000000 -2.251560 89.581300 507.482000 -91.448100 1.051040 178.976000 15.735700 0.000005 -0.000001 110.358000 82.769200 -110.863000 8.984550 -0.406207 -0.000000 5.832110 5.026740 -1.266090 16.377300 -0.000001 -0.000001 -2.108960 -6.122320 2.591110 6.456720 -0.000001 -0.000000 -7.140110 -9.105010 3.730440 12.994200 -0.242716 4.980390 -90.380700 1.104880 -70.986500 5.348090 -0.000007 -0.000001 -77.306700 18.014800 9.749920 24.328600 0.000019 0.000005 1.863820 30.057000 -3.717210 22.291600 -0.000001 0.000005 4.648020 5.031460 6.643780 12.994500 -0.242716 -4.980390 89.187400 4.979610 -80.720200 -5.348130 -0.000001 -0.000004 -47.626000 23.859800 -44.718500 -24.328900 0.000322 -0.000009 -0.488686 -0.476862 -45.638300 -22.291500 -0.000108 -0.000004 20.882800 5.434400 -4.091460 -2.192480 -6.469440 -0.000000 -175.536000 -1.749850 -27.629800 39.081100 -0.000007 -0.000012 -0.018421 0.030702 30.964400 40.985400 -0.000006 -0.000013 -5.304490 0.497552 -65.149500 11.754300 -0.000000 0.000003 -0.001105 -0.016893 -17.263800 -2.192510 6.469440 -0.000001 172.736000 13.229600 -176.787000 -39.081100 -0.002282 -0.040193 0.007113 -0.006377 30.871400 -40.985400 0.000008 0.000006 7.381820 11.696700 -71.537700 -11.754300 -0.000006 -0.000006 -0.044195 -0.276416 -27.940400
